HIERARCHY
ROOT joint_Root
{
	OFFSET 0.0 0.0 0.0
	CHANNELS 6 Xposition Yposition Zposition Zrotation Xrotation Yrotation 
	JOINT Hips
	{
		OFFSET -0.726466 93.3139 -2.00062
		CHANNELS 6 Xposition Yposition Zposition Zrotation Xrotation Yrotation 
		JOINT Spine
		{
			OFFSET 15.7357 0.0 0.0
			CHANNELS 6 Xposition Yposition Zposition Zrotation Xrotation Yrotation 
			JOINT Chest
			{
				OFFSET 8.98455 -0.406207 0.0
				CHANNELS 6 Xposition Yposition Zposition Zrotation Xrotation Yrotation 
				JOINT Neck
				{
					OFFSET 16.3773 0.0 0.0
					CHANNELS 6 Xposition Yposition Zposition Zrotation Xrotation Yrotation 
					JOINT Head
					{
						OFFSET 6.45672 0.0 0.0
						CHANNELS 6 Xposition Yposition Zposition Zrotation Xrotation Yrotation 
						End Site
						{
							OFFSET 0.0 0.0 0.0
						}
					}
				}
				JOINT Shoulder_L
				{
					OFFSET 12.9942 -0.242716 4.98039
					CHANNELS 6 Xposition Yposition Zposition Zrotation Xrotation Yrotation 
					JOINT UpperArm_L
					{
						OFFSET 5.34809 0.0 0.0
						CHANNELS 6 Xposition Yposition Zposition Zrotation Xrotation Yrotation 
						JOINT LowerArm_L
						{
							OFFSET 24.3286 1.87007e-05 0.0
							CHANNELS 6 Xposition Yposition Zposition Zrotation Xrotation Yrotation 
							JOINT Hand_L
							{
								OFFSET 22.2916 0.0 0.0
								CHANNELS 6 Xposition Yposition Zposition Zrotation Xrotation Yrotation 
								End Site
								{
									OFFSET 0.0 0.0 0.0
								}
							}
						}
					}
				}
				JOINT Shoulder_R
				{
					OFFSET 12.9945 -0.242716 -4.98039
					CHANNELS 6 Xposition Yposition Zposition Zrotation Xrotation Yrotation 
					JOINT UpperArm_R
					{
						OFFSET -5.34813 0.0 0.0
						CHANNELS 6 Xposition Yposition Zposition Zrotation Xrotation Yrotation 
						JOINT LowerArm_R
						{
							OFFSET -24.3289 0.000322201 0.0
							CHANNELS 6 Xposition Yposition Zposition Zrotation Xrotation Yrotation 
							JOINT Hand_R
							{
								OFFSET -22.2915 -0.000108084 0.0
								CHANNELS 6 Xposition Yposition Zposition Zrotation Xrotation Yrotation 
								End Site
								{
									OFFSET 0.0 0.0 0.0
								}
							}
						}
					}
				}
			}
		}
		JOINT UpperLeg_L
		{
			OFFSET -2.19248 -6.46944 0.0
			CHANNELS 6 Xposition Yposition Zposition Zrotation Xrotation Yrotation 
			JOINT LowerLeg_L
			{
				OFFSET 39.0811 0.0 -1.23785e-05
				CHANNELS 6 Xposition Yposition Zposition Zrotation Xrotation Yrotation 
				JOINT Foot_L
				{
					OFFSET 40.9854 0.0 -1.26872e-05
					CHANNELS 6 Xposition Yposition Zposition Zrotation Xrotation Yrotation 
					JOINT Toes_L
					{
						OFFSET 11.7543 0.0 0.0
						CHANNELS 6 Xposition Yposition Zposition Zrotation Xrotation Yrotation 
						End Site
						{
							OFFSET 0.0 0.0 0.0
						}
					}
				}
			}
		}
		JOINT UpperLeg_R
		{
			OFFSET -2.19251 6.46944 0.0
			CHANNELS 6 Xposition Yposition Zposition Zrotation Xrotation Yrotation 
			JOINT LowerLeg_R
			{
				OFFSET -39.0811 -0.00228153 -0.0401928
				CHANNELS 6 Xposition Yposition Zposition Zrotation Xrotation Yrotation 
				JOINT Foot_R
				{
					OFFSET -40.9854 0.0 0.0
					CHANNELS 6 Xposition Yposition Zposition Zrotation Xrotation Yrotation 
					JOINT Toes_R
					{
						OFFSET -11.7543 0.0 0.0
						CHANNELS 6 Xposition Yposition Zposition Zrotation Xrotation Yrotation 
						End Site
						{
							OFFSET 0.0 0.0 0.0
						}
					}
				}
			}
		}
	}
}
MOTION
Frames:	6
Frame Time:	0.0333333
0.000000 0.000000 0.000000 0.000000 0.000000 -0.000000 1.053490 86.778800 -10.705700 87.806200 5.309550 -6.067940 15.735700 0.000005 -0.000001 72.823200 81.132100 -69.864200 8.984550 -0.406207 -0.000000 9.348120 -5.167960 6.339430 16.377300 -0.000001 -0.000001 3.835820 -1.837020 -1.875850 6.456720 -0.000001 -0.000000 -2.135500 2.164620 -2.102010 12.994200 -0.242716 4.980390 -88.218600 -5.387400 -71.669800 5.348090 -0.000007 -0.000001 -64.840300 26.444000 -10.642700 24.328600 0.000019 0.000005 -7.320200 -3.850870 -62.399200 22.291600 -0.000001 0.000005 -0.084755 5.615330 -12.299700 12.994500 -0.242716 -4.980390 89.126900 1.910830 -65.438100 -5.348130 -0.000001 -0.000004 -58.818900 26.982100 0.615446 -24.328900 0.000322 -0.000009 -6.686950 -5.942400 -48.546800 -22.291500 -0.000108 -0.000004 -4.374090 5.548590 -8.638560 -2.192480 -6.469440 -0.000000 -167.949000 -4.587840 0.432623 39.081100 -0.000007 -0.000012 0.322087 -0.066110 78.399800 40.985400 -0.000006 -0.000013 3.187450 -10.301000 -36.793700 11.754300 -0.000000 0.000003 -0.006237 -0.072983 -19.547300 -2.192510 6.469440 -0.000001 -169.794000 13.271200 140.577000 -39.081100 -0.002282 -0.040193 -0.057841 0.066785 42.460500 -40.985400 0.000008 0.000006 6.548180 -3.797690 -61.317100 -11.754300 -0.000006 -0.000006 -0.015082 -0.138332 -22.217100
0.000000 0.000000 0.000000 0.000000 0.000000 -0.000000 0.945030 83.782300 -2.085030 84.506600 1.915890 -1.370830 15.735700 0.000005 -0.000001 82.015400 79.189500 -78.193900 8.984550 -0.406207 -0.000000 13.762300 -2.770090 7.980820 16.377300 -0.000001 -0.000001 1.917190 -0.418923 -1.398560 6.456720 -0.000001 -0.000000 -2.986870 2.569270 -3.532810 12.994200 -0.242716 4.980390 -88.631000 -3.817930 -70.255200 5.348090 -0.000007 -0.000001 -65.148200 27.239300 -6.257200 24.328600 0.000019 0.000005 -7.690490 -5.457060 -54.858100 22.291600 -0.000001 0.000005 -1.314070 5.613680 -12.197800 12.994500 -0.242716 -4.980390 88.554700 3.384300 -66.853700 -5.348130 -0.000001 -0.000004 -50.646200 25.982600 -12.325600 -24.328900 0.000322 -0.000009 -7.809900 -6.664590 -49.759500 -22.291500 -0.000108 -0.000004 -2.582480 5.550560 -8.726020 -2.192480 -6.469440 -0.000000 -165.547000 -5.679610 -3.767730 39.081100 -0.000007 -0.000012 0.308777 0.031649 95.850100 40.985400 -0.000006 -0.000013 5.127370 -6.955030 -37.490300 11.754300 -0.000000 0.000003 -0.006867 -0.078530 -19.773600 -2.192510 6.469440 -0.000001 -167.848000 8.553140 145.217000 -39.081100 -0.002282 -0.040193 0.209973 -0.141804 55.554800 -40.985400 0.000008 0.000006 10.623200 -8.351390 -72.517800 -11.754300 -0.000006 -0.000006 -0.004054 -0.052005 -18.688500
0.000000 0.000000 0.000000 0.000000 0.000000 -0.000000 0.881681 82.085700 5.654350 84.950500 1.413240 -1.881460 15.735700 0.000005 -0.000001 83.700100 79.173000 -80.100500 8.984550 -0.406207 -0.000000 13.843400 -2.158680 7.464140 16.377300 -0.000001 -0.000001 2.507570 -0.435605 -1.225240 6.456720 -0.000001 -0.000000 -3.201160 2.019020 -3.273510 12.994200 -0.242716 4.980390 -88.538500 -3.958210 -69.715000 5.348090 -0.000007 -0.000001 -66.485900 28.533800 -2.350830 24.328600 0.000019 0.000005 -5.559270 -5.601360 -44.860500 22.291600 -0.000001 0.000005 -2.325940 5.606940 -11.753000 12.994500 -0.242716 -4.980390 88.593700 3.471600 -67.933200 -5.348130 -0.000001 -0.000004 -44.859500 23.204600 -24.078500 -24.328900 0.000322 -0.000009 -8.138180 -6.519140 -51.545800 -22.291500 -0.000108 -0.000004 -1.828860 5.553550 -8.874390 -2.192480 -6.469440 -0.000000 -168.503000 -4.882580 -16.817500 39.081100 -0.000007 -0.000012 0.052727 0.018548 109.370000 40.985400 -0.000006 -0.000013 7.985190 -3.682380 -38.434000 11.754300 -0.000000 0.000003 -0.006457 -0.074942 -19.627200 -2.192510 6.469440 -0.000001 -168.715000 11.379700 147.989000 -39.081100 -0.002282 -0.040193 0.229955 -0.123430 61.440200 -40.985400 0.000008 0.000006 10.613800 -7.005090 -81.425900 -11.754300 -0.000006 -0.000006 -0.002453 -0.034251 -17.965900
0.000000 0.000000 0.000000 0.000000 0.000000 -0.000000 1.279760 81.650900 13.775200 86.619200 0.469024 -2.694560 15.735700 0.000005 -0.000001 88.240900 79.518300 -85.333700 8.984550 -0.406207 -0.000000 13.207400 -0.498934 5.872820 16.377300 -0.000001 -0.000001 2.846820 -1.136220 -0.386460 6.456720 -0.000001 -0.000000 -2.256870 0.141618 -3.480390 12.994200 -0.242716 4.980390 -88.486600 -3.942810 -68.979800 5.348090 -0.000007 -0.000001 -67.077200 27.459600 1.810840 24.328600 0.000019 0.000005 1.427330 1.696690 -40.101600 22.291600 -0.000001 0.000005 -5.873890 5.587810 -10.626900 12.994500 -0.242716 -4.980390 88.942500 2.656240 -68.283000 -5.348130 -0.000001 -0.000004 -40.120200 19.752200 -32.182100 -24.328900 0.000322 -0.000009 -10.897200 -7.376930 -56.290100 -22.291500 -0.000108 -0.000004 -1.432970 5.546730 -8.553710 -2.192480 -6.469440 -0.000000 -173.110000 -5.277130 -28.668400 39.081100 -0.000007 -0.000012 -0.158849 -0.074407 115.103000 40.985400 -0.000006 -0.000013 9.317240 -4.825920 -42.029400 11.754300 -0.000000 0.000003 -0.006532 -0.075602 -19.654100 -2.192510 6.469440 -0.000001 -171.932000 11.514700 153.728000 -39.081100 -0.002282 -0.040193 0.229897 -0.120669 61.975400 -40.985400 0.000008 0.000006 9.192280 -6.455420 -87.058600 -11.754300 -0.000006 -0.000006 -0.550890 -0.675144 -18.538700
0.000000 0.000000 0.000000 0.000000 0.000000 -0.000000 2.060670 83.007700 22.432300 88.514200 -1.976630 -3.946550 15.735700 0.000005 -0.000001 95.322300 80.031800 -93.456900 8.984550 -0.406207 -0.000000 12.060600 1.902770 3.529120 16.377300 -0.000001 -0.000001 3.183360 -1.446910 0.446447 6.456720 -0.000001 -0.000000 -2.055330 -1.857920 -3.178510 12.994200 -0.242716 4.980390 -88.705000 -3.133440 -67.530300 5.348090 -0.000007 -0.000001 -65.860900 27.353400 7.009250 24.328600 0.000019 0.000005 0.982543 1.142870 -40.719100 22.291600 -0.000001 0.000005 -6.012310 5.588650 -10.675400 12.994500 -0.242716 -4.980390 89.256100 1.914920 -68.765300 -5.348130 -0.000001 -0.000004 -36.912900 16.317400 -36.840900 -24.328900 0.000322 -0.000009 -11.654500 -6.575670 -60.960600 -22.291500 -0.000108 -0.000004 -0.921015 5.546330 -8.534380 -2.192480 -6.469440 -0.000000 -178.639000 -6.552840 -37.270100 39.081100 -0.000007 -0.000012 -0.253017 -0.101526 111.866000 40.985400 -0.000006 -0.000013 10.202900 -7.347230 -48.162300 11.754300 -0.000000 0.000003 -0.006550 -0.075761 -19.660600 -2.192510 6.469440 -0.000001 -176.265000 10.827100 162.151000 -39.081100 -0.002282 -0.040193 0.164750 -0.109546 55.855200 -40.985400 0.000008 0.000006 8.355200 -3.862330 -87.249700 -11.754300 -0.000006 -0.000006 -1.744710 -1.986520 -21.032400
0.000000 0.000000 0.000000 0.000000 0.000000 -0.000000 3.019140 85.863200 31.487200 90.888500 -4.733170 -5.310890 15.735700 0.000005 -0.000001 102.263000 80.415800 -101.758000 8.984550 -0.406207 -0.000000 10.967200 4.055080 0.618820 16.377300 -0.000001 -0.000001 3.420840 -1.391320 1.001030 6.456720 -0.000001 -0.000000 -2.060120 -3.462590 -2.545680 12.994200 -0.242716 4.980390 -88.597800 -3.166130 -66.098600 5.348090 -0.000007 -0.000001 -65.778300 26.199200 11.817000 24.328600 0.000019 0.000005 -2.139480 -2.391950 -41.826600 22.291600 -0.000001 0.000005 -4.474410 5.601760 -11.444400 12.994500 -0.242716 -4.980390 89.630300 0.970160 -69.139900 -5.348130 -0.000001 -0.000004 -36.819600 13.989300 -39.209900 -24.328900 0.000322 -0.000009 -12.306800 -6.050570 -64.208700 -22.291500 -0.000108 -0.000004 -0.208952 5.546940 -8.562340 -2.192480 -6.469440 -0.000000 176.335000 -6.607210 -42.191600 39.081100 -0.000007 -0.000012 -0.168094 -0.030910 100.423000 40.985400 -0.000006 -0.000013 8.024360 -7.754220 -54.206100 11.754300 -0.000000 0.000003 -0.006118 -0.071913 -19.503600 -2.192510 6.469440 -0.000001 178.974000 7.789630 170.653000 -39.081100 -0.002282 -0.040193 0.074825 -0.068086 46.427000 -40.985400 0.000008 0.000006 7.474950 -1.748880 -78.476000 -11.754300 -0.000006 -0.000006 -0.042493 -0.269899 -27.667400
